<mxfile host="app.diagrams.net" agent="Mozilla/5.0 (Windows NT 10.0; Win64; x64) AppleWebKit/537.36 (KHTML, like Gecko) Chrome/130.0.0.0 Safari/537.36" version="24.7.17">
  <diagram name="Pagina-1" id="02GKMPbsoLxoZ-Zhze37">
    <mxGraphModel dx="1321" dy="592" grid="1" gridSize="10" guides="1" tooltips="1" connect="1" arrows="1" fold="1" page="1" pageScale="1" pageWidth="827" pageHeight="1169" math="0" shadow="0">
      <root>
        <mxCell id="0" />
        <mxCell id="1" parent="0" />
        <mxCell id="x6eUfGFzxHGIitKMDGkb-120" value="&amp;lt;&amp;lt;abstract&amp;gt;&amp;gt;&lt;div&gt;Person&lt;/div&gt;" style="shape=umlActor;verticalLabelPosition=bottom;verticalAlign=top;html=1;outlineConnect=0;" vertex="1" parent="1">
          <mxGeometry x="400" y="640" width="30" height="60" as="geometry" />
        </mxCell>
        <mxCell id="x6eUfGFzxHGIitKMDGkb-121" value="" style="endArrow=classic;html=1;rounded=0;" edge="1" parent="1">
          <mxGeometry width="50" height="50" relative="1" as="geometry">
            <mxPoint x="440" y="670" as="sourcePoint" />
            <mxPoint x="490" y="620" as="targetPoint" />
          </mxGeometry>
        </mxCell>
        <mxCell id="x6eUfGFzxHGIitKMDGkb-122" value="" style="endArrow=classic;html=1;rounded=0;" edge="1" parent="1">
          <mxGeometry width="50" height="50" relative="1" as="geometry">
            <mxPoint x="440" y="670" as="sourcePoint" />
            <mxPoint x="490" y="720" as="targetPoint" />
          </mxGeometry>
        </mxCell>
        <mxCell id="x6eUfGFzxHGIitKMDGkb-123" value="Admin" style="shape=umlActor;verticalLabelPosition=bottom;verticalAlign=top;html=1;outlineConnect=0;" vertex="1" parent="1">
          <mxGeometry x="490" y="680" width="30" height="60" as="geometry" />
        </mxCell>
        <mxCell id="x6eUfGFzxHGIitKMDGkb-124" value="User" style="shape=umlActor;verticalLabelPosition=bottom;verticalAlign=top;html=1;outlineConnect=0;" vertex="1" parent="1">
          <mxGeometry x="490" y="580" width="30" height="60" as="geometry" />
        </mxCell>
        <mxCell id="x6eUfGFzxHGIitKMDGkb-125" value="" style="rounded=0;whiteSpace=wrap;html=1;" vertex="1" parent="1">
          <mxGeometry x="550" y="360" width="420" height="410" as="geometry" />
        </mxCell>
        <mxCell id="x6eUfGFzxHGIitKMDGkb-126" value="prenota libro" style="ellipse;whiteSpace=wrap;html=1;" vertex="1" parent="1">
          <mxGeometry x="600" y="390" width="120" height="80" as="geometry" />
        </mxCell>
        <mxCell id="x6eUfGFzxHGIitKMDGkb-127" value="" style="endArrow=none;html=1;rounded=0;" edge="1" parent="1" source="x6eUfGFzxHGIitKMDGkb-126">
          <mxGeometry width="50" height="50" relative="1" as="geometry">
            <mxPoint x="540" y="620" as="sourcePoint" />
            <mxPoint x="530" y="620" as="targetPoint" />
          </mxGeometry>
        </mxCell>
        <mxCell id="x6eUfGFzxHGIitKMDGkb-128" value="include" style="html=1;verticalAlign=bottom;endArrow=open;dashed=1;endSize=8;curved=0;rounded=0;exitX=1;exitY=0.5;exitDx=0;exitDy=0;entryX=0;entryY=0.5;entryDx=0;entryDy=0;" edge="1" parent="1" source="x6eUfGFzxHGIitKMDGkb-126" target="x6eUfGFzxHGIitKMDGkb-129">
          <mxGeometry relative="1" as="geometry">
            <mxPoint x="790" y="620" as="sourcePoint" />
            <mxPoint x="710" y="620" as="targetPoint" />
          </mxGeometry>
        </mxCell>
        <mxCell id="x6eUfGFzxHGIitKMDGkb-129" value="login" style="ellipse;whiteSpace=wrap;html=1;" vertex="1" parent="1">
          <mxGeometry x="840" y="470" width="120" height="80" as="geometry" />
        </mxCell>
        <mxCell id="x6eUfGFzxHGIitKMDGkb-130" value="extends" style="html=1;verticalAlign=bottom;endArrow=open;dashed=1;endSize=8;curved=0;rounded=0;exitX=0.083;exitY=0.815;exitDx=0;exitDy=0;exitPerimeter=0;entryX=0.937;entryY=0.288;entryDx=0;entryDy=0;entryPerimeter=0;" edge="1" parent="1" source="x6eUfGFzxHGIitKMDGkb-129" target="x6eUfGFzxHGIitKMDGkb-131">
          <mxGeometry relative="1" as="geometry">
            <mxPoint x="770" y="570" as="sourcePoint" />
            <mxPoint x="820" y="580" as="targetPoint" />
          </mxGeometry>
        </mxCell>
        <mxCell id="x6eUfGFzxHGIitKMDGkb-131" value="subscribe" style="ellipse;whiteSpace=wrap;html=1;" vertex="1" parent="1">
          <mxGeometry x="620" y="525" width="120" height="80" as="geometry" />
        </mxCell>
        <mxCell id="x6eUfGFzxHGIitKMDGkb-132" value="" style="endArrow=none;html=1;rounded=0;entryX=0.023;entryY=0.675;entryDx=0;entryDy=0;entryPerimeter=0;" edge="1" parent="1" target="x6eUfGFzxHGIitKMDGkb-131">
          <mxGeometry width="50" height="50" relative="1" as="geometry">
            <mxPoint x="540" y="630" as="sourcePoint" />
            <mxPoint x="750" y="530" as="targetPoint" />
          </mxGeometry>
        </mxCell>
        <mxCell id="x6eUfGFzxHGIitKMDGkb-133" value="" style="endArrow=none;html=1;rounded=0;entryX=0.5;entryY=1;entryDx=0;entryDy=0;" edge="1" parent="1" target="x6eUfGFzxHGIitKMDGkb-129">
          <mxGeometry width="50" height="50" relative="1" as="geometry">
            <mxPoint x="530" y="710" as="sourcePoint" />
            <mxPoint x="820" y="530" as="targetPoint" />
          </mxGeometry>
        </mxCell>
        <mxCell id="x6eUfGFzxHGIitKMDGkb-134" value="" style="endArrow=none;html=1;rounded=0;entryX=0.238;entryY=0.854;entryDx=0;entryDy=0;entryPerimeter=0;" edge="1" parent="1" target="x6eUfGFzxHGIitKMDGkb-125">
          <mxGeometry width="50" height="50" relative="1" as="geometry">
            <mxPoint x="530" y="720" as="sourcePoint" />
            <mxPoint x="820" y="530" as="targetPoint" />
          </mxGeometry>
        </mxCell>
        <mxCell id="x6eUfGFzxHGIitKMDGkb-135" value="gestione libri" style="ellipse;whiteSpace=wrap;html=1;" vertex="1" parent="1">
          <mxGeometry x="650" y="660" width="120" height="80" as="geometry" />
        </mxCell>
      </root>
    </mxGraphModel>
  </diagram>
</mxfile>
